<mxfile modified="2019-11-14T23:14:58.265Z" host="www.draw.io" agent="Mozilla/5.0 (Macintosh; Intel Mac OS X 10_14_5) AppleWebKit/537.36 (KHTML, like Gecko) Chrome/78.0.3904.97 Safari/537.36" etag="Jqeno6Xi72vC6IBjxDze" version="12.2.6" type="github" pages="1">
  <diagram id="ZetlsLaNo7wISi5GngXo" name="Page-1">
    <mxGraphModel dx="2132" dy="1021" grid="1" gridSize="10" guides="1" tooltips="1" connect="1" arrows="1" fold="1" page="1" pageScale="1" pageWidth="850" pageHeight="1100" math="0" shadow="0">
      <root>
        <mxCell id="0"/>
        <mxCell id="1" parent="0"/>
        <mxCell id="SF2RBvMhf9Iol7tZJRfC-2" value="" style="shape=image;html=1;verticalAlign=top;verticalLabelPosition=bottom;labelBackgroundColor=#ffffff;imageAspect=0;aspect=fixed;image=https://cdn4.iconfinder.com/data/icons/logos-brands-5/24/scala-128.png" parent="1" vertex="1">
          <mxGeometry x="10" y="20" width="128" height="128" as="geometry"/>
        </mxCell>
        <mxCell id="SF2RBvMhf9Iol7tZJRfC-3" value="&lt;h1&gt;What makes Scala, a Scalable Language&lt;/h1&gt;&lt;p&gt;&lt;/p&gt;&lt;ul&gt;&lt;li&gt;&lt;font style=&quot;font-size: 14px&quot; face=&quot;Verdana&quot;&gt;Fusing Object Oriented programming and Functional Programming.&lt;/font&gt;&lt;/li&gt;&lt;li&gt;&lt;font size=&quot;3&quot; face=&quot;Verdana&quot;&gt;In scala, &lt;b&gt;a function value is an object.&lt;/b&gt;&lt;/font&gt;&lt;/li&gt;&lt;li&gt;&lt;b&gt;&lt;font size=&quot;3&quot; face=&quot;Verdana&quot;&gt;Function types are classes that are inherited by subclasses.&lt;/font&gt;&lt;/b&gt;&lt;/li&gt;&lt;/ul&gt;&lt;p&gt;&lt;/p&gt;" style="text;html=1;strokeColor=none;fillColor=none;spacing=5;spacingTop=-20;whiteSpace=wrap;overflow=hidden;rounded=0;" parent="1" vertex="1">
          <mxGeometry x="120" y="24" width="730" height="116" as="geometry"/>
        </mxCell>
        <mxCell id="SF2RBvMhf9Iol7tZJRfC-4" value="&lt;h1&gt;Scala is object-oriented&lt;/h1&gt;&lt;p&gt;&lt;/p&gt;&lt;ol&gt;&lt;li style=&quot;text-align: justify&quot;&gt;&lt;font style=&quot;font-size: 18px&quot; face=&quot;Verdana&quot;&gt;Object oriented programming is about putting the data and operations into fully general containers called objects. and keep the same construction principle is extensible such that these containers themselves can be stored in other containers. (Simula is first pure object oriented language)&lt;/font&gt;&lt;/li&gt;&lt;li style=&quot;text-align: justify&quot;&gt;&lt;font face=&quot;Verdana&quot; size=&quot;3&quot;&gt;Static fields or methods that are not members of any object.&amp;nbsp;&amp;nbsp;&lt;/font&gt;&lt;/li&gt;&lt;li style=&quot;text-align: justify&quot;&gt;&lt;font face=&quot;Verdana&quot; size=&quot;3&quot;&gt;&lt;b&gt;Scala is Object-oriented in its pure form:&lt;/b&gt;&amp;nbsp;every value is an object and every operation is a method call.&lt;/font&gt;&lt;/li&gt;&lt;li style=&quot;text-align: justify&quot;&gt;&lt;font face=&quot;Verdana&quot; size=&quot;3&quot;&gt;&lt;span&gt;Scala &lt;/span&gt;&lt;b&gt;&lt;i&gt;traits&amp;nbsp;&lt;/i&gt;&lt;/b&gt;&lt;span&gt;: are like Java interfaces : but, they can also have method implementation and fields.&amp;nbsp;&lt;/span&gt;&lt;br&gt;&lt;/font&gt;&lt;/li&gt;&lt;li style=&quot;text-align: justify&quot;&gt;&lt;font face=&quot;Verdana&quot; size=&quot;3&quot;&gt;Object can be created by &lt;b&gt;&lt;i&gt;mixin composition&lt;/i&gt;&lt;/b&gt; (application of multiple inheritance) taking members of a class and adding members of number of traits to them.&amp;nbsp;&lt;/font&gt;&lt;/li&gt;&lt;li style=&quot;text-align: justify&quot;&gt;&lt;font face=&quot;Verdana&quot; size=&quot;3&quot;&gt;Unlike a class, a trait can add a new functionality to an unspecified superclass.&lt;/font&gt;&lt;/li&gt;&lt;li style=&quot;text-align: justify&quot;&gt;&lt;font face=&quot;Verdana&quot; size=&quot;3&quot;&gt;Traits avoid the classical &#39;diamond inheritance&#39;&amp;nbsp;problem, which arises when same class is inherited via several paths.&lt;/font&gt;&lt;/li&gt;&lt;/ol&gt;&lt;p&gt;&lt;/p&gt;&lt;p style=&quot;text-align: justify&quot;&gt;&lt;br&gt;&lt;/p&gt;" style="text;html=1;strokeColor=none;fillColor=none;spacing=5;spacingTop=-20;whiteSpace=wrap;overflow=hidden;rounded=0;" parent="1" vertex="1">
          <mxGeometry x="280" y="210" width="650" height="390" as="geometry"/>
        </mxCell>
        <mxCell id="SF2RBvMhf9Iol7tZJRfC-6" value="&lt;h1&gt;Scala is functional&lt;/h1&gt;&lt;ol style=&quot;font-size: 18px&quot;&gt;&lt;li style=&quot;text-align: justify&quot;&gt;&lt;font style=&quot;font-size: 18px&quot;&gt;is a full-blown functional language.&lt;/font&gt;&lt;/li&gt;&lt;li style=&quot;text-align: justify&quot;&gt;&lt;font style=&quot;font-size: 18px&quot;&gt;Function programming has its roots in lambda calculus. (Lisp : first FUNCTIONAL LANGUAGE)&lt;/font&gt;&lt;/li&gt;&lt;li style=&quot;text-align: justify&quot;&gt;&lt;font style=&quot;font-size: 18px&quot;&gt;&lt;b&gt;Functions are first-class values&lt;/b&gt; as an integer or a string :&amp;nbsp;&lt;/font&gt;&lt;/li&gt;&lt;ol&gt;&lt;li style=&quot;text-align: justify&quot;&gt;&lt;font style=&quot;font-size: 18px&quot;&gt;&lt;i&gt;Can be passed on as arguments to other functions and&amp;nbsp;&lt;/i&gt;&lt;/font&gt;&lt;/li&gt;&lt;li style=&quot;text-align: justify&quot;&gt;&lt;font style=&quot;font-size: 18px&quot;&gt;&lt;i&gt;Can be returned back.&amp;nbsp;&lt;/i&gt;&lt;/font&gt;&lt;/li&gt;&lt;li style=&quot;text-align: justify&quot;&gt;&lt;font style=&quot;font-size: 18px&quot;&gt;&lt;i&gt;Can define a function within another function like defining an integer value in a function.&amp;nbsp;&lt;/i&gt;&lt;/font&gt;&lt;/li&gt;&lt;li style=&quot;text-align: justify&quot;&gt;&lt;font style=&quot;font-size: 18px&quot;&gt;&lt;i&gt;Define functions without giving them a name, like a integer or string literal.&lt;/i&gt;&lt;/font&gt;&lt;/li&gt;&lt;/ol&gt;&lt;li style=&quot;text-align: justify&quot;&gt;&lt;font style=&quot;font-size: 18px&quot;&gt;Advantage :&amp;nbsp;&lt;/font&gt;&lt;/li&gt;&lt;ol&gt;&lt;li style=&quot;text-align: justify&quot;&gt;&lt;font style=&quot;font-size: 18px&quot;&gt;provides a convenient&amp;nbsp;means for abstracting over operations and creating new control structures. (aka as a means for composition)&lt;/font&gt;&lt;/li&gt;&lt;li style=&quot;text-align: justify&quot;&gt;&lt;font style=&quot;font-size: 18px&quot;&gt;provides greater expressiveness, often leading to very legible and concise programs.&lt;/font&gt;&lt;/li&gt;&lt;/ol&gt;&lt;li style=&quot;text-align: justify&quot;&gt;&lt;font style=&quot;font-size: 18px&quot;&gt;&lt;b&gt;Operations(functions) of a program should map input values to output values rather than changing data in place. &lt;/b&gt;(implements &lt;b&gt;immutable data structures&lt;/b&gt; with methods/functions&amp;nbsp;&lt;b&gt;having NO side effects &lt;/b&gt;i.e. the methods are&lt;b&gt; referentially transparent and are called pure functions.&lt;/b&gt;&amp;nbsp;) They are PURE functions.&lt;/font&gt;&lt;/li&gt;&lt;li style=&quot;text-align: justify&quot;&gt;&lt;font style=&quot;font-size: 18px&quot;&gt;Implements immutable list, tuples, maps and sets on top of those found in Java APIs like String.&lt;/font&gt;&lt;/li&gt;&lt;li style=&quot;text-align: justify&quot;&gt;&lt;font style=&quot;font-size: 18px&quot;&gt;Advantage :&amp;nbsp;&lt;/font&gt;&lt;/li&gt;&lt;ol&gt;&lt;li style=&quot;text-align: justify&quot;&gt;&lt;font style=&quot;font-size: 18px&quot;&gt;Improves modularity and because of their modularity, pure functions are easier to test, reuse,&amp;nbsp; parallelize, generalize, and reason about.&lt;/font&gt;&lt;/li&gt;&lt;/ol&gt;&lt;/ol&gt;" style="text;html=1;strokeColor=none;fillColor=none;spacing=5;spacingTop=-20;whiteSpace=wrap;overflow=hidden;rounded=0;" parent="1" vertex="1">
          <mxGeometry x="40" y="570" width="810" height="490" as="geometry"/>
        </mxCell>
        <mxCell id="SF2RBvMhf9Iol7tZJRfC-11" value="" style="shape=image;verticalLabelPosition=bottom;labelBackgroundColor=#ffffff;verticalAlign=top;aspect=fixed;imageAspect=0;image=data:image/png,iVBORw0KGgoAAAANSUhEUgAAASAAAACvCAMAAABqzPMLAAABCFBMVEX///8AAADm5ubMzMzAl2uampq3hVCzs7Pp6enR0dHu7u7Ly8vl5eXx8fH8/PzSsZDa2tr29vbf39+ioqKTk5O/v7+6urqsrKy+vr6mpqd6enrFxcWLi4xOTk9GRkZqamtZWVqDg4M/Pz80NDRwcHFgYGBMTEw2NjZvb3AdHR8pKSkjIyMVFRZVVVXJnnAaGhtTPSSZg2jCjVMAAAY8KxuPcVHcupe1gk2qhl5yUzG9kWJNOCFSRjqdfVhaRzMgGRBlSi2meUcnIhyHYzktHxB4ZVKpj3QyKR6BZ0u6nn9QPywWEAxnUDiacEJHPjK3kGQzIxAwIAmMdmHIonvQpHJvWEBGNyh8WzUsOwk1AAAgAElEQVR4nOV9CZva1pI2BVZrQZK1IaEFtIBYBJhcd+I4yU2czPVMfLNcz8x3nfn//+Q7dbQggQABwu049Tx2N023kN5Te9Wp0+l8pqRqrmUsoi0QWo19T2d73FPf06dBquAyToS4QBLFoWGxJmt709EEfzJzDFOU5Ke+x6ciQbOcDeIwCRybV4Tqu6rIDwx/tCJv+wbP/dVQEt1wRqAZOXpfPPnwqqANvQBg7vQ+2s09OSkGkam1w3Jq079QeQcg6t/zpj4ZknUiNWBol/6dqhOdpNzjjlCYWZYd9nlF4fumpRuOv5nNggUxFbx0j088QTJD0FlcKS0EIl84/2tNSJUExSRIBNQYnKTI0ZXGrH4rmUTl2tcviqyvgblVXXM9xtkk6cNPNr5nu4RzNFHUFMJAKZGXXY7ragrPejH91Sl/46c2ot4YxsPbLqEysGZv+HtFH6XI+KHNi0ITsFWRdYhWGLk3fGwjEmKY3AgPvUwI0eCqv9TMKQrUOLSVS30rlZ/CzYt7hiwAvR1nRpjC5mJV1DXQNvi2cu09SAZxZe8oaAuYtBc79AEus2f9McCGvfEG0MB4t13iKEkJhG1eT03ggsXsR7Bm2jB/sgN+C5c5pO4abtGsNSTPoaknpcUATFt2moVpS1cqkwDQugmQtlEjbaIR7eq15DwhsXeQMiJfd4ijFGDO/5K2AHC6rX6u0/5iz+AuQRQD55QuR+Dx24WHqL81tJxZmILV7gVzSuLT74cAgdj+x7ItK2r9bqbRPWnrpRkk93F+o1aFjIfdOveJadbN9q492Rx/T4ggvFOSjYeovYvJ62QXm24Jb45avDh73NSr0c2CLRx1DYIWWcgvK2h0FilAXBo5N1IQaocLh1rtzcrgHPur4GbHS03mx95S2tNCvbJfpaJhHo9oWJYSIiThs7PHl9vwJB9guzFcjbf2HBofjqxyCPatt26fiCtG67byaLOyKVaA6J9xjN9AqLNuT+ioQxJX9ciDHucFG0EYeGsE1Nm7L/YIr7vHL9eU5An4cPyeWopapQovDvGykY8eTGZ+VGKIFQhZsEN6M/bYOLhGSGQyIrIpWIdgSPVASJAc6GflhEriGZs1zaHr9ns912RpRo+F8LiVFOHwPq8ivrLCNn7gyCE8E8oS5QUHRqCTfwH5TQU9pmpMq6MIjhfkZo85zY+1Kt8vLXAmgyoQi6eGuYjm+Kk2ekqKM9plWB+TSKEMxGlwzOJKbSmhQYVJDQgcZ+11aC0MBVwk9nI8JcJDFDmgsCUERARFNh2dfJltyeMRbbs66rv6UOMoD0p8pS1TS+CQyxDLRvC0cfEN+huCsQVIs2AWhBInEuLSXJqF93dUUOXJIYteRfa6/Ios03gLeifaMrZta2hq+ujuwpi8OWbJ+3zHRJ4TsNI67cgRSB0NNIsydG0S0KiRArL4aukX0odEg0AWCLpyQhZNjiLkGyLgudrP1H3BWQDkjflRlyQ+Zh0uJKPiyeFqCcQ9ibOF4WFGKxXUIoNNVLdE1KuJ0Y4uqBJh5Ah1gRRBEswmUOcV6nCYfdVB370YA+U+HuYUONBEWHQ6XTCUEYytQucLsFL4gannePv0GuFRGDxox4yFleQJLghH0LBW5IWGHEUY1QXAlyqwZEEX5EkGRARTzTVE6LyxBtEYlg5bl7NgD91Btayhu8BM8FEtosVc8tCgKLgcxIRDUOJIrSj+MNknJ+nVj2lptiWAnEX5FYp1HxXfbEUEy+NgmYDLozTZ1hhMGA9A4UBTct/JgxUE88Cj/nKvNlFvHvo7OpRy6zywAxRznzyqT3jpkefxauSlD8Szyp8yAbB4UVBzjb4kfoiY+SW11BZA01HpBTJHh5ujY6QHC0bsWAph4hVM4ojo6RglbzSXQeTzJ9xAj8A3n40sZ4l1/NobPeCgVVlx2IQZ0QQQxSPg+kT8kHhmlMk0ZrOEUaqDvKpP6EFEFFTgdo7miY2WAPLKVkyvY1jF2RDEZA2ZRCYYTolZiuhtyR3YSkQkJ6jGo9gz6+Iu/cBTVCqQOUQ3MwHR9A6RMsITMc+SL/2MR1WR9wKfR8Gn/Cnw1CaK1MVHJbWuWxSkoy78hTQoR5N+g0RTDEviXkejaTxnOjHeXph0NKV77C/Dg3BVh3KEh9ZGBQ497g3as7DnElPplaVQ9Ee8SiWVREA08+lk+JlrgPpwUX08kUe4hNQyj/INUqSqT9eMN5xY6cjIxr2T1ZBova+6g0n5csmSQBt6JGjgICJibPQVgtVylSsbxdSnxKcQlhFvzYkloz/V45w9iGNQ+7H9sqG8iTy4NF9+kQOmHtr+dTnNKND3OTSPOmjErTD6ArBdqnFMZ572tcXMoMNnrusB1ZdgnTr/9Dqq9V5aI/bQiFUeU0ndxCkx7cxKxiRjvxMEEV01O/ZYt2hrkwaD5kspt/hUSlthXS1tDnVEJWxj00/XErUj0p/3JWSWW1MhfJtZZKvtkmGJJHTF96gCkJ1p44qc9G5OBxo1/vv1FLZfR8pJrwG/kjDpn60MXUXLdi8bg3enBq26KL8a3dwlba/AmXrThSQ7AHfprLHq9Bub3OOjKjSqDdFkrc9aOhM6frCZRZNJslptCS1XySQa+Yx5yvUWR635DSWSakuc3IWNMZfTcD9bJnNWOM6j3fVqHCVIk4zw+xUmjNe+YWrqEZ5mIWi7BNxZ1Bd2onvVKTOSVtUwQ/PQn1pFG98JPc/QbV23D0g3PD9apb1/HqvUqDBxDGG7EDEQ1P582FIceYwWFcvAB4Q1Ro7B6DpzhnTGMMJ4RjMrmxqdYwD4LXI/A6sjnp1/jw6egqyyhhZ87BJmzmJTQon8rjGdQ12bETYytdbjRxT/saqqHN1B4eWkQCl44rYwMi5AZ4cSif/q0v5+W30e6gi2xwVWTu6GkLos59AIN10BD4UohjoHety4be40uUSIT3k4crsNkaULzytX1iC8Dh9GJ7K5Pri8AKs29Kc6hXPNZRL493ARuagqGOL1HISFuAN9Q2z97TcpWwDBWUbkYNx+kGGu9ziTKCTjShaaQHzoGxq3R/YqO4dxk0hRmLcdArqbA7XBwgzCq3gohLV5mDMZ32rEeGfdeMuE7N/ewECpy/N83wy3h60THQ94HdaLS8x8RksIB9F6Xw1gEj69+WtuVMF7nF7gSVm1huJS4rIQYqIful0+iAJ6ipGjn/cTd6QbKwhM09nnFw6C9BueLMaF/K/qS4ClfVlWQJrC2rpZWW/B03W3zrrI0bjb5STF8lcw9z2mCScRIA1i4jcmy+r7Ts8g/4FDl8S3lWOR2x6p7hR3cF4hn2JI1OiNXeQHC12QBAHX7SJGAsvEk/VkM/WOxxwIjeHEI9x+5pi4wxEW1esxmRekPgKvpXt65wsSuXWP702SBc0KiUVcL9wrU0oSOwa/f0s+qmD8A+rCQuhSUnpEUQ2s6YxGrdMQYdIzsSOxK4HGc+JxuokvGTkW4sOa43H1erNl+nWQxSGSxlveYrYmf7PxQ91VdlDJkqj09Gy/5Djs3+Q+aYSNfPd6qz895t664KQAcXwPiYDk2tO0VrJcrVbL5Xa7XWHeY5nu7YydULdYk8JDAJpuq8+VZ7qn1cZ7VVAsz0+7Bx5X84jQZJtf0LD2t9NfRT0i1Uvfdq9qK+eOmUMdwoyD+r2ceIKVqRueFyJN49F8uV5PAsez+jx5ky1TWvUMc7vDZ7IsQ1LH8bKquKyFfGmxg54iyHK7vjDP0KVNfJ3lL+Qm50gK2iP6jeKj7QDKWWlH+U5Y+k4FIB0RIc5moZrTr8N7BUpnSebZcJbt5l2OfaIpbHbg4g5eTpAICZyo8a5po8bwidDn/MYdcXCnoHOpCtoD6DhVAKLdNUOYJhQQdZ0x6qK9nMdVRFSfq4fThR8Ho3ndNvDtfL5MZmOiN/xMRzhFDrEi7zGwqRXjGwNkHgBkwVBaYuht5poHysXzpyZBG2AGC20N0Z6DPmEnHAeB/ofKxzBJEdLy4LhXiZIXMOBKOroJDQ8AMgi/CKuJ0NlkEta/296W9snOg3c/zZJJa1iVNGMIvVTEGuNTA5CPmlqdbPVc8xz3uz5BYjK259O738C8XDMhi08BEpsDNCjjY+HFxmsqvosi+wHLj/yQN1He5zrCCpMB4bAc3jGgcHVGrCFAZogALTONY2YZrN5dmxlaJzMDZAA6UQ5RRyj7RMaNACUoXRBUP9G5e12vVZInWaE2SdQ1Ps+qFB7kHNTcypcBItE8XmtPJavLw0zsJ01WlqS3ifrBDGDZaRxC/waAdLoVHNuiO5ZTqH73zyVhhIVWGQsBBPiFLdmYLjDCZW5QCSBrSTOKfYLSAHZTKfwTdQ2xT2LXYBbt0Xg8m4028dTT3V79vrq7kp2lbpnU0gulFZaT+FKAcjNvYn4L1RkLmpyAMc7MpQDHei96xv6ko0ekAzc3CZjBHXYyn6B1xbGV56XCakiV0AV+YuZJm6aPzzKjlyC6PkbRpSl8u1bC5PT3YezYbL82epe6Ggn5XNYO031Lxkecsbi3ac8ptS4o4CMLXQaQaVrkcb/46RuKRbRV0xqxRRlqdihhKhsjYziDpq0Ngosj4jbmR5O2dSWvNay2flvCJY50jzVZL0J4Xj78g0rVeuJnLjTxIgQN9nJoqrvAvKJ3qXPNmRsSStZub2mfrIrvz5XLWX3cctIcIF6xcJYVwvNAAEKHJyTBcfYY4gTG1YooZyRE1Ux7VyV+ujaOBNLbqWWfpL291VGpuOrC32GkNBMxXunbKCw/UngeHn5H3EUGdnNN5LjS2S/hHowRe0M2VdRn17DfxWQ8lm/SKe0/GcDf/gmPunIWHF5xmQ22mf3f1w8ZUYDcagF6UApkcCOdU1p/7Sp5EZCP5vdrNE4/JN+2uQpUfKbdXZvwt1fP/wWzIX+cizCbaKNkwa8fXr98eNgB1DvhFyrEqId0XYapA6DTzEJP3FUVi9s4gxzHPML6vuPXpgH5T5kTdUEeqlvqQ2fhb8+fv3qHWzv5OozIz/p2iBtM3/zw/ft/v/j2oQxQH8O52gKhGhYTI7OiCg4ixUKTTv5h6V2115nrRKCk11Dt46pqEEFwz747hTiJBkAsdCKiRee7cpaFAD1/8f4DwGqquy5ll2wYY98dWKGPOcs3v3z1+sWLZ4RK+Dz8hM/Fr+tCU3cFyxw4upVNimGNvIb7B21U5ER1jdN1sgGm1KD7Wetht9a8sy02r9XQxiP+F1ovNQKnpIRSgJ49e/Hsq18w0R3NNkEQB4Q2s3Q29q+/fHj9jIKzD9ADXfi62qkHsChyvBixaQk4IUrklDzlnESDMvEyUzh0mKX+EZftOnAgWWA5Jd5jTW5+nylOKRFzPkmXWpoTOSseis0AeoYYff/hh593Lv+vP//y24ev3j97UaBzAFC9XpCD8mYSwrihhYWPOS7LCIjWQl1ELNwaEeCL0MTLOMSAdeA4oTfcZyR1dU8esgr/RJqUDLO5AwgxepHB8eIF/VrBBunbr0v4/F6/IVaelYVBhYjY/nG3o0FAXs43dO88kkLnAAZ59kjIssNScnRHv1h4XPclVd81RAwrAJ2lso5++WU9QEHlMXCIh4VGmm5LUZe6VjTZcjAnsATZqzwNg83jUr8eIxfmH3tsuQv/+eoCgMr4/Ai1ABHzVZaNAo4ZqmDpUdylQ0gMR0DKvFYpc8GVVL6P+A79muZjlcOpyGEYOkieYdPSuNkXuTbMHtFNl3BQCSCCTx1AbrW7uYhyujRIk5cOevVc3/aczQSz+1iac1muE2aiNlrHod3nj2/xrRpNTY/RQVuvkiTaxAuC0NSPN1Gyzkr/ocWLN8W8PYD/+OflAL38/Q3MjZqeaDWp/jAsghyNrqcHWxWNHNLcIUKl0UfxiWpe+qGpWWcsVXV7o0nU3SRku4KkqhVrqqoCx/GmHuJ+XoKT4SpXslOPhJfwz31dfIwyFfTy6y9IFNmzajb4GHsycLB6QwKKZOlsP5/0LBgeHZrO2T5NnvUxN3RcFye7oQIusTbe2VBWVnkLjxSAZcAMLk8y8WCx8OvrhghRgF5S6fJI+HGoKbj6vo6GJAtdIvKrbQpTPY0LH25KNNUFKpu3piiL3oUlFx6rQY/wfTOEEJ6fvsAYFFth7MMmjunNnopqjKKNc3w/Qw6QPMG44EISMLG5Zi7hIx6NhzyF3541gOjFw0//94boDoNGbQSg/bYjoeWdjIckJ6v0a3TlBj51GODc6cZ8nio91VzCh/cHbmEJGvLe+69+ewskDGCz9BFvH2xnse6zMbNEWQmdeE3Xf5JoJETUGrKRQst+AofNon98+P79sxc7V/rfFJb371+//urdb9+9wZz7lO0XIT9vQbB3NaY+tOd6xiKO/TBr01S962OqbHbZ8LaN8fIgOOpq7ZFCV0QQuwLOvCdx+x8/fPiK0LsPP/zyyx9//Pzzr1mFZuQQU9mrJETYgz3tNWMSiC0O1kXjEn26gI7Bucol1oCOhlTXwTV/XSZlA1ETHaZRPSKJ3S4naDpx3vbrVEkcGrYrkrcJm1XLZ+bBwFN5P2XfSfOKwHOKoogaHR7o0Z1mclSVEbmRn+KknQZhG7vaXWgyA5vO+6IAYQFRwE4+QekPTNMcDty+wkkCIpM2EXX3AHLhYNKnfaga2JGZV+8VVOvkvtAw8JnDxD2m6zg9NsenTBpMkPG4dnog1U0DMUtjITUFKCNuR90K7QHUq2m1q5tMzuD8PkWnxbEeB0vqC+hZ7OVkD9toxvUmHRhhXLtrb38TkQHRuRpuapirAB2lHKBMEyk1VWYlOVgVgagg1EKJb2q4oY8PMWzNxqLjRhJEptvEQcjnYK+acFsNHQ4sM+sD7hJJEJD/5YsA4o1+BtDqcNWJT7VnyQxYbzZTVsPflXGE7xx1e5RyAQPpRIJBg207Gqyp6uGOmDBtdkaPaYc6gT+3tVFdY4eG3AifFCCeH4HFpwBta/wtBYLKa2m9K5W5Ec3Zo13AQV3kg7dzgc4QdM6PaeJWGfRmJaIXzGmSbvHNg2dV5o7ocO1QuZOrnlwaeUtNbomDJFTKXD1AWDv0EphnHLRe1wBk77UoMrsGK4ziLaKlbbxV6iKgX8AQxV706BwncZWvtb7cMW4vHYpKoZuhbtNmqfEl/FkjPDUaR41OmkR5SU11gQHHzwOHsVxR2hmv7B1i4VwG72eT6WglORgv1snLX7sPgOLzJeJpjjAW5YvTPeikKOIb9M8eENHbbdT3dr6Eh5VbrTuiQkerukRmJoYx3QDXO6de8ts6Pc4toZZoB4W2yDr5R6E+EAkqCBT+43XqSa7CQV6GVeYl7N1sVbW9sXKlkN9D6MQNzagZ9JHSwKEP/NHtNjkxpUEGYbECPGUdZQWxXMyhz4bjMpMQgo7KDVnJczuceTyIV5OTQpYkVYC6gqq59jTf8DBeED/RNrJhw5HDlur4/Gw3CM3JrJA63/u0cCeGHt0yLtCUdbq5NU61SbBerU7CI47K89mMIkY2YSDj0YiU/WwKYTF8DJdzik9hwpL2CJBPrVfi85Mni02oxhDEfWmi2x38IMqAwnNAWV6rhBp8UDALD9nRPtP9LnuhxBrp/QEeSBOOVbqzO33+00cy4ZFN5cqzXXDQEPBwuTjljoCKlJ0LK7HgY4gNXu3gOne1yYg4pbVC15tMY5izJYtcZrc57UmVDu08hzAJ9NS7vqsoGopZtV2Yj3PBIN6NOUYn14bgxJOmlC5xOsA34zZ3dULC+hFhhfLaDwsd5NK1C4whLlQ6ciMB3XSiDYq6ksV7BF4JBVkrnf9R+TyUzxGsi7PRWGKGdgDRBNRJT3HnUlddaX6R21uPPDTGWQrkavuER8LvcmrFSh33ovE4gHE1CycUfcYa2HLfnj4iB/IQdGgdF8npjIh6E9iRRtU7ChAHFsq1FODF0i47qTIFh6yDkaoDA7XJMOPZ6DxAJapEGnzeMi7i4olgyUXFkIGonR5DIl2Hh68UGr1ofApBSWe+DiChuw4H5BGBehVk9abpTS5wloaODNyl85aVdVWye+MMIgNM/TGvDqcpzJIjdMQHSt+rtMMWAKUjX8ZBMabLwODCGTbd83yUWGI1a9RGXPwszydwwKaiYGRFOcJAs2XkUdFLD4DQISDqSY4w18KgaXUPpy26BCJLpvuXOtY8hW+2BxBnDjThKEZKv7drkuGzIpULAX6xIN8ETfAZ4NoTir0Bd+VR1yo7ORIHMIUZm2ch7gCMNOjNRghyyCepmHupolMgiohN4elM5jmdF1yXPx9EEPUM4NSQWaRtztkmrwIgAcdIDTjhgJFodC/0TCPMuYj3KEB5LKGOs4E2RhoBCjyb7eQd41CvC6d3iXii45Fj1bQiURdsUzxWy0nqcsA0jINQVSDkecXsdWRyM4qo4JZfG513BwHCaEg6doYiWecE0AZCssKJuUEK0A4IgRgnmIRmT5RyUiVOVLBdyF7gA9t8GSBpknOqWuCzY12Z4xknnR8399mGJReJZ2b1kyKyD5rlvlVMW4oUsqbEwR+N8g2YSSdIvxGkIpmpMEQRqBCMZ4SpBp3jB7twxJVFhss2HccpQFyZVTSLtn0n0QbbhMbRfJIs07TpOg51tyRiGiqxgHe2O3tg1GR7VW7A0Mm8W//00cpcn/XiOX6Wc7T6TGiRa2lynyFPhNnVMhymxV9xPdPSuY67iQ3GYAZ4oyoOvnfGHUy7rfDkBDvwicrRpmyVvQeIZP4Q0xSgPU9RkHib3Gkp/7reeLbLCVqpT4/HYeDZFIrCE8Z2oGPPJdIJK4Q3Yke3zF6l417oW14+qXDMnMmFDnLVlPbvY3JZ0JBOVXOCEJVPbzjGWmCaB6MeNj0fINGr6yYXADmpmjvwFDEAw4q3RDS2KHbpN1zVEyKy2KVjmjdsEREb584plQZGnI4bLKBPkm0mGRvHNnsNUulSHl4SRTryGxY4JCqLmrYdEVYS0mXs43L2iSkhd7Ao6+wdQNnBEk0doW4ZIDz3iItwnk03M/AGNBzyRlix77JMOI2pDEeB4WoXGLtp5huxzkXJV8FmUdTw2ZeY5hEjtGR9TAljY//YKjhQLVRUNvy/KUDlfS9KsstyOVTGmDscJlpLyg1nvAmUxbHAxqXlWTd1BHAAyDIfJKMU3QHZQZQNk66VvXfKdpcPknApPJh/rH1Mo1tLuETaJpm6ZPKQUCWqAkKKx+5AEjtLWVwD0Lp0SJkzH4xpWubjkHL0YLCmxE8DI5XPTalWhacBLUTUPPlSs9l3OUCCJkqHXuJOxEpbp5RlCSAsT3zMvZhOO+PLOjSSLBs/leiJWNwlS80s8ssgUZY4CcpWuBpfGguLxIWz+EIHlY+507ctHo55nuTW+iSM/YoTet+7eZDDTNgyNDjNNGJ06YLQ5jU6NCVLukpdzQwxfbYpAJq0dg7gFaS0tPu8WzMyVox381wH2ecUniLHSQI/DDfoJK7no3jheAbDGOEC3bjIt81CCSnRxUdqtElWO1NRg1rHbVAkGN0spq14isgxGm+Hi9G86MxYxiGrEP202znFz+4zcL8pMW3wkAOz05bFzYrph0lXWswQRVFT+q6riGKmlXZmjN+0NNn2WtJvP0l0AaszzWb9zCM64SlW2xh2eWk+fuohFENaq7ielBVE55rxepnv2zjW2EVjvP/kc3DEScPqYC2RKPX8SOFedgTJNQA599yf1JCIkb7Se8ezLho0guaHxTWONXaJez68ZfnaIi2GyyLWjIgNnjcRAD57yOYA7XLS3j3O0riciDWd6xdqQ8UH8BoFRlcAVOSkW5ge3Q5hIA7TkyejVAiD0lFDybwcIKUEUGsB0c3E0y394flxFjLO1YWgsXkpyr9XAMS0dyh7K6SxwRq2U2PQFepxkrp0w0bEXKDXbwFIv/vOg4tJVcwwJgK0HZMYydBti8V23YHJ2objY7A08a3LVHrvBoCs+57edz2pnMJ6zibvTIEkmuFuO89SuIszVr08idwUn1KsYdaeHPvpkKyqWNVTb6qA9/J45gqAejWN9Z8dFbNLrwBI+fibkD8+FWMhrwCIn9yyv/BPQr08X3QNQH5dm+tnRr28UnwNQOGRg5I/J+rl3nBjgHZNVDzzxBmzj0FXALQL59mnzph9BOrlDdqNAertADKabEn7k1Mv75trDNBOwtymrQp/ZurlAWdTfIqMIu+uPm4x9WmoD9nZ9CeaWyuUJ+15cwXffEL5jnuRC+tVgFmUphyUWXliwd789PITy3fcg1z4F/YOhorakIWolVfMEXzx8PDwdvzZxxp9+K/n/0kbA1mpCUQcTuRkA4B/4ETF786V3f78pMD/vnr16r/+jpV4Bqunp+ERuJ4ZLgG+o8PMXn7xpNX5j0IS/P3V8+fPXz3//oc3ADHjauL+XsNsn7ggiJrLTNcAb/Jpri9/fNrq/Ech+A8E6PnzZy+evf7wJW349oa8wqU95DgGmx5+5OpOTNvm3/74+0M+r/TlN09eW70/RfA8BYiONHn/+h1yEiyjTezjNLDJarsu2qV//uHdTw+laa4EoHuPe3l6CuGfBUApSM+eff/ul6KN+dcvf/ntw7t3X33/+j2+WZk0SQC685jeT4AsYsae70/Ce4EC95pA8uLfL4qxk8WQrjJAT1+dvzfx8L+HAJ0a0lUF6PNX0nJqxq4E6PEJuxQ/FsG/KED/rwk+3+4B9ONfIGvf2fz8vDFAD3v0xSdaOWyVvNSMXQXQ2+gvwEF2c4C+3QcIPv9glUZjTQHax+cfNcN5Pz/KzFgDgCrjth/oROn9oVefJfnQkIP2Geh3+CuoIEwJ4dDt8wDt4/Py14+0fe7JKaBq+mJ8vvwLZKRT4gCevzoD0L4Be/n124NBnJ8viWtiyU6OA37Y088P38Cn1393R1IXAL99X3NORMY9ZXhevnz4/UeA7eef6KiQEujWQb8AAACASURBVE4A/vu3d6/3Thr5lshWAc/Lh6+//v0bnLg91j/7bP0BySLr4Iy9N3/89tXr199++7JCDz/9RKD5EocDR471+Xe9HCOJ1520OfTt2y+R3r59+99ffvfd/7xJ20WnTO/KaTefE8kKy0xnyRYeH9er+SiehqEzdRhW+SSg+f838KcnkzthOwAAAABJRU5ErkJggg==;" parent="1" vertex="1">
          <mxGeometry x="1040" y="40" width="216" height="132" as="geometry"/>
        </mxCell>
        <mxCell id="SF2RBvMhf9Iol7tZJRfC-8" value="&lt;h1&gt;A function has &lt;i style=&quot;font-weight: normal&quot;&gt;side effects&lt;/i&gt; if it does something other than returning a result, like,&amp;nbsp;&lt;/h1&gt;&lt;ol&gt;&lt;li class=&quot;calibre26&quot; style=&quot;box-sizing: border-box ; padding: 0px ; list-style: disc ; text-align: left ; margin: 0.5em 0px 0.65em ; line-height: 1.65em&quot;&gt;Modifying a variable&lt;/li&gt;&lt;li class=&quot;calibre26&quot; style=&quot;box-sizing: border-box ; padding: 0px ; list-style: disc ; text-align: left ; margin: 0.5em 0px 0.65em ; line-height: 1.65em&quot;&gt;Modifying a data structure in place&lt;/li&gt;&lt;li class=&quot;calibre26&quot; style=&quot;box-sizing: border-box ; padding: 0px ; list-style: disc ; text-align: left ; margin: 0.5em 0px 0.65em ; line-height: 1.65em&quot;&gt;Setting a field on an object&lt;/li&gt;&lt;li class=&quot;calibre26&quot; style=&quot;box-sizing: border-box ; padding: 0px ; list-style: disc ; text-align: left ; margin: 0.5em 0px 0.65em ; line-height: 1.65em&quot;&gt;Throwing an exception or halting with an error&lt;/li&gt;&lt;li class=&quot;calibre26&quot; style=&quot;box-sizing: border-box ; padding: 0px ; list-style: disc ; text-align: left ; margin: 0.5em 0px 0.65em ; line-height: 1.65em&quot;&gt;Printing to the console or reading user input&lt;/li&gt;&lt;li class=&quot;calibre26&quot; style=&quot;box-sizing: border-box ; padding: 0px ; list-style: disc ; text-align: left ; margin: 0.5em 0px 0.65em ; line-height: 1.65em&quot;&gt;Reading from or writing to a file&lt;/li&gt;&lt;li class=&quot;calibre26&quot; style=&quot;box-sizing: border-box ; padding: 0px ; list-style: disc ; text-align: left ; margin: 0.5em 0px 0.65em ; line-height: 1.65em&quot;&gt;Drawing on the screen&lt;/li&gt;&lt;/ol&gt;" style="text;html=1;strokeColor=none;fillColor=none;spacing=5;spacingTop=-20;whiteSpace=wrap;overflow=hidden;rounded=0;" parent="1" vertex="1">
          <mxGeometry x="1265" y="40" width="420" height="290" as="geometry"/>
        </mxCell>
        <mxCell id="SF2RBvMhf9Iol7tZJRfC-13" value="&lt;h1&gt;Function programming &lt;span style=&quot;font-weight: normal&quot;&gt;is NOT about eliminating &lt;/span&gt;&lt;span style=&quot;font-weight: normal&quot;&gt;side-effects&lt;/span&gt; but rather, it is about pushing the side effects to the outer layers of the program, or, at least structuring the code so that side-effects occur but aren&#39;t &lt;i style=&quot;font-weight: normal&quot;&gt;observable.&lt;/i&gt;&amp;nbsp;i.e.,&amp;nbsp;&lt;/h1&gt;&lt;h1&gt;&lt;ul&gt;&lt;li&gt;&lt;font style=&quot;font-size: 18px ; font-weight: normal&quot;&gt;Mutate data that&#39;s declared locally in the body of some function such that this data can&#39;t be referenced from outside the function.&amp;nbsp;&lt;/font&gt;&lt;/li&gt;&lt;li&gt;&lt;span style=&quot;font-weight: normal&quot;&gt;&lt;font style=&quot;font-size: 18px&quot;&gt;Write to file as no enclosing function can observe this occurring.&lt;/font&gt;&amp;nbsp;&lt;/span&gt;&lt;/li&gt;&lt;/ul&gt;&lt;/h1&gt;" style="text;html=1;strokeColor=none;fillColor=none;spacing=5;spacingTop=-20;whiteSpace=wrap;overflow=hidden;rounded=0;" parent="1" vertex="1">
          <mxGeometry x="980" y="350" width="690" height="250" as="geometry"/>
        </mxCell>
        <mxCell id="SF2RBvMhf9Iol7tZJRfC-14" value="" style="outlineConnect=0;dashed=0;verticalLabelPosition=bottom;verticalAlign=top;align=center;html=1;shape=mxgraph.aws3.lambda_function;fillColor=#F58534;gradientColor=none;" parent="1" vertex="1">
          <mxGeometry x="39.5" y="498" width="69" height="72" as="geometry"/>
        </mxCell>
        <mxCell id="SF2RBvMhf9Iol7tZJRfC-15" value="" style="aspect=fixed;perimeter=ellipsePerimeter;html=1;align=center;shadow=0;dashed=0;fontColor=#4277BB;labelBackgroundColor=#ffffff;fontSize=12;spacingTop=3;image;image=img/lib/ibm/miscellaneous/object_storage.svg;" parent="1" vertex="1">
          <mxGeometry x="190" y="200" width="80" height="80" as="geometry"/>
        </mxCell>
        <mxCell id="SF2RBvMhf9Iol7tZJRfC-16" value="" style="shape=image;html=1;verticalAlign=top;verticalLabelPosition=bottom;labelBackgroundColor=#ffffff;imageAspect=0;aspect=fixed;image=https://cdn2.iconfinder.com/data/icons/very-emotional-emoji/64/33_EmoticonsHDcom.png" parent="1" vertex="1">
          <mxGeometry x="880" y="670" width="64" height="64" as="geometry"/>
        </mxCell>
        <mxCell id="SF2RBvMhf9Iol7tZJRfC-22" value="&lt;span style=&quot;white-space: nowrap ; font-size: 18px&quot;&gt;&lt;font face=&quot;Verdana&quot;&gt;Functional Programmer often speak of implementing programs with &lt;br&gt;a pure core and a thin layer on the outside that handles effects.&lt;/font&gt;&lt;/span&gt;" style="text;html=1;strokeColor=none;fillColor=none;align=left;verticalAlign=middle;whiteSpace=wrap;rounded=0;" parent="1" vertex="1">
          <mxGeometry x="996" y="670" width="644" height="60" as="geometry"/>
        </mxCell>
        <mxCell id="SF2RBvMhf9Iol7tZJRfC-25" value="" style="shape=image;html=1;verticalAlign=top;verticalLabelPosition=bottom;labelBackgroundColor=#ffffff;imageAspect=0;aspect=fixed;image=https://cdn0.iconfinder.com/data/icons/glyphpack/60/function-128.png" parent="1" vertex="1">
          <mxGeometry x="850" y="770" width="88" height="88" as="geometry"/>
        </mxCell>
        <mxCell id="SF2RBvMhf9Iol7tZJRfC-31" value="" style="outlineConnect=0;dashed=0;verticalLabelPosition=bottom;verticalAlign=top;align=center;html=1;shape=mxgraph.aws3.change_set;fillColor=#759C3E;gradientColor=none;" parent="1" vertex="1">
          <mxGeometry x="880" y="840" width="146" height="188" as="geometry"/>
        </mxCell>
      </root>
    </mxGraphModel>
  </diagram>
</mxfile>
